<svg xmlns="http://www.w3.org/2000/svg" version="1.1" xmlns:xlink="http://www.w3.org/1999/xlink" xmlns:svgjs="http://svgjs.dev/svgjs" width="1000" height="232" viewBox="0 0 1000 232"><g transform="matrix(1,0,0,1,-0.6060606060606233,0.20150290539726257)"><svg viewBox="0 0 396 92" data-background-color="#ffffff" preserveAspectRatio="xMidYMid meet" height="232" width="1000" xmlns="http://www.w3.org/2000/svg" xmlns:xlink="http://www.w3.org/1999/xlink"><defs></defs><g id="tight-bounds" transform="matrix(1,0,0,1,0.2400000000000091,-0.07990632455408786)"><svg viewBox="0 0 395.52 92.15981264910818" height="92.15981264910818" width="395.52"><g><svg viewBox="0 0 543.903617499499 126.73456585741813" height="92.15981264910818" width="395.52"><g transform="matrix(1,0,0,1,0,17.515413949903667)"><svg viewBox="0 0 395.52 91.7037379576108" height="91.7037379576108" width="395.52"><g><svg viewBox="0 0 395.52 91.7037379576108" height="91.7037379576108" width="395.52"><g><svg viewBox="0 0 395.52 91.7037379576108" height="91.7037379576108" width="395.52"><g transform="matrix(1,0,0,1,0,0)"><svg width="395.52" viewBox="1.2999999523162842 -35.29999923706055 155.69000244140625 36.099998474121094" height="91.7037379576108" data-palette-color="#3c2c32"><path d="M41.8-34.1L37.45-33.7 37.45-0.8 41.8-0.4 41.8 0 29.5 0 29.5-0.4 33.6-0.8 33.6-31.25 33.4-31.25 21.35 0.8 20.85 0.8 7.4-31.3 7.2-31.3 7.2-3.05Q7.2-1.85 7.5-1.38 7.8-0.9 8.7-0.8L8.7-0.8 12.25-0.4 12.25 0 1.3 0 1.3-0.4 4.9-0.8Q5.8-0.9 6.1-1.38 6.4-1.85 6.4-3.05L6.4-3.05 6.4-33.05Q6.05-33.65 5.53-33.88 5-34.1 4-34.1L4-34.1 1.7-34.1 1.7-34.5 10.25-34.5 22.55-5.15 22.75-5.15 33.75-34.5 41.8-34.5 41.8-34.1ZM73.05-0.9L77.2-0.4 77.2 0 64.95 0 64.95-0.4 69.05-0.9 64.35-13.7 52.25-13.7 48.1-2.65Q47.9-2.1 47.9-1.75L47.9-1.75Q47.9-1.2 48.22-0.98 48.55-0.75 49.4-0.65L49.4-0.65 52.45-0.4 52.45 0 41.8 0 41.8-0.4 44.6-0.65Q45.85-0.75 46.37-1.15 46.9-1.55 47.3-2.65L47.3-2.65 59.55-35.3 60.45-35.3 73.05-0.9ZM52.55-14.5L64.05-14.5 58.45-29.75 58.25-29.75 52.55-14.5ZM108.1-0.4L108.8-0.4 108.8 0 103.65 0Q102.45 0 101.85-0.35 101.25-0.7 100.6-1.7L100.6-1.7 92.95-14.05Q92.25-15.2 91.77-15.48 91.3-15.75 90.1-15.75L90.1-15.75 86.4-15.75 86.4-0.8 90.75-0.4 90.75 0 78.45 0 78.45-0.4 82.55-0.8 82.55-33.7 78.45-34.1 78.45-34.5 91.1-34.5Q97-34.5 100.1-32.13 103.2-29.75 103.2-25.25L103.2-25.25Q103.2-21.75 101.3-19.5 99.4-17.25 95.8-16.4L95.8-16.4 95.85-16.4 105-2.1Q105.65-1.1 106.27-0.75 106.9-0.4 108.1-0.4L108.1-0.4ZM90.95-33.9L86.4-33.9 86.4-16.5 90.95-16.5Q94.95-16.5 96.87-18.63 98.8-20.75 98.8-25.15L98.8-25.15Q98.8-29.6 96.85-31.75 94.9-33.9 90.95-33.9L90.95-33.9ZM109.14-34.1L109.14-34.5 121.19-34.5 121.19-34.1 117.09-33.7 117.09-0.8 121.19-0.4 121.19 0 109.14 0 109.14-0.4 113.24-0.8 113.24-33.7 109.14-34.1ZM141.24-35.3Q145.59-35.3 149.22-32.9 152.84-30.5 154.92-26.38 156.99-22.25 156.99-17.25L156.99-17.25Q156.99-12.25 154.92-8.13 152.84-4 149.22-1.6 145.59 0.8 141.24 0.8L141.24 0.8Q136.89 0.8 133.27-1.6 129.64-4 127.57-8.13 125.49-12.25 125.49-17.25L125.49-17.25Q125.49-22.25 127.57-26.38 129.64-30.5 133.27-32.9 136.89-35.3 141.24-35.3L141.24-35.3ZM130.29-17.25Q130.29-8.9 133.14-4.38 135.99 0.15 141.24 0.15L141.24 0.15Q146.49 0.15 149.34-4.38 152.19-8.9 152.19-17.25L152.19-17.25Q152.19-25.6 149.34-30.15 146.49-34.7 141.24-34.7L141.24-34.7Q135.99-34.7 133.14-30.15 130.29-25.6 130.29-17.25L130.29-17.25Z" opacity="1" transform="matrix(1,0,0,1,0,0)" fill="#3c2c32" class="undefined-text-0" data-fill-palette-color="primary" id="text-0"></path></svg></g></svg></g></svg></g></svg></g><g transform="matrix(1,0,0,1,417.1690516420809,0)"><svg viewBox="0 0 126.73456585741813 126.73456585741813" height="126.73456585741813" width="126.73456585741813"><g data-palette-color="#fbb168"><rect width="34.64078133436096" height="126.73456585741813" fill="#fbb168" stroke="transparent" data-fill-palette-color="accent" x="0" fill-opacity="1"></rect><rect width="34.64078133436096" height="126.73456585741813" fill="#fbb168" stroke="transparent" data-fill-palette-color="accent" x="42.24485528580605" fill-opacity="0.75"></rect><rect width="34.64078133436096" height="126.73456585741813" fill="#fbb168" stroke="transparent" data-fill-palette-color="accent" x="84.4897105716121" fill-opacity="0.5"></rect></g></svg></g></svg></g></svg><rect width="395.52" height="92.15981264910818" fill="none" stroke="none" visibility="hidden"></rect></g></svg></g></svg>